# 3ds Max Wavefront OBJ Exporter v0.99 - (c)2007 guruware
# File Created: 25.11.2023 19:24:29

mtllib PlataformaPiso.mtl

#
# object Plane_011_Plane_012
#

v  0.2725 0.2276 -0.1039
v  0.2938 0.2262 -0.0927
v  0.2961 0.2439 -0.4050
v  0.2444 0.2300 -0.1228
v  0.2130 0.2303 -0.1365
v  0.1834 0.2295 -0.1442
v  0.1556 0.2316 -0.1453
v  0.1328 0.2321 -0.1450
v  0.1093 0.2320 -0.1436
v  0.0825 0.2312 -0.1414
v  0.0550 0.2300 -0.1339
v  0.0318 0.2292 -0.1249
v  0.2600 0.2453 -0.4270
v  -0.2020 0.2453 -0.4270
v  -0.2435 0.2442 -0.4050
v  -0.2490 0.2239 0.0207
v  -0.2188 0.2223 0.0342
v  -0.2085 0.2220 0.0383
v  -0.1966 0.2216 0.0418
v  -0.1843 0.2208 0.0432
v  -0.1741 0.2211 0.0448
v  -0.1677 0.2215 0.0450
v  -0.1643 0.2216 0.0423
v  -0.1758 0.2210 0.0312
v  -0.1932 0.2220 -0.0043
v  -0.2075 0.2234 -0.0411
v  -0.2162 0.2246 -0.0785
v  -0.2202 0.2263 -0.1180
v  -0.1874 0.2275 -0.1592
v  -0.0025 0.2276 -0.1114
v  -0.1180 0.2267 -0.1283
v  -0.0282 0.2264 -0.0885
v  -0.0500 0.2244 -0.0682
v  -0.0641 0.2228 -0.0434
v  -0.1136 0.2263 -0.1069
v  -0.1154 0.2252 -0.0886
v  -0.1121 0.2232 -0.0662
v  -0.1042 0.2235 -0.0465
v  -0.0735 0.2225 -0.0249
v  -0.0934 0.2237 -0.0288
v  -0.0843 0.2216 -0.0188
# 41 vertices

vn 0.0056 0.9985 0.0543
# 1 vertex normals

vt 0.8608 0.3737 0.2748
vt 0.8916 0.3576 0.2184
vt 0.8950 0.8101 0.9405
vt 0.8200 0.4012 0.3752
vt 0.7745 0.4210 0.3880
vt 0.7316 0.4322 0.3521
vt 0.6914 0.4338 0.4394
vt 0.6583 0.4333 0.4610
vt 0.6242 0.4313 0.4554
vt 0.5854 0.4281 0.4249
vt 0.5455 0.4173 0.3752
vt 0.5118 0.4042 0.3426
vt 0.8426 0.8420 1.0000
vt 0.1730 0.8420 1.0000
vt 0.1129 0.8101 0.9559
vt 0.1050 0.1932 0.1259
vt 0.1487 0.1736 0.0608
vt 0.1636 0.1677 0.0452
vt 0.1809 0.1626 0.0320
vt 0.1987 0.1605 0.0000
vt 0.2135 0.1583 0.0088
vt 0.2228 0.1580 0.0270
vt 0.2277 0.1618 0.0318
vt 0.2111 0.1780 0.0065
vt 0.1857 0.2293 0.0485
vt 0.1650 0.2828 0.1061
vt 0.1524 0.3370 0.1549
vt 0.1466 0.3942 0.2246
vt 0.1942 0.4539 0.2727
vt 0.4622 0.3846 0.2770
vt 0.2948 0.4091 0.2396
vt 0.4249 0.3514 0.2274
vt 0.3934 0.3220 0.1470
vt 0.3729 0.2861 0.0802
vt 0.3012 0.3782 0.2214
vt 0.2986 0.3516 0.1762
vt 0.3033 0.3191 0.0981
vt 0.3149 0.2906 0.1066
vt 0.3592 0.2593 0.0658
vt 0.3304 0.2649 0.1154
vt 0.3436 0.2504 0.0290
# 41 texture coords

o Plane_011_Plane_012
g Plane_011_Plane_012
usemtl None
s off
f 1/1/1 2/2/1 3/3/1 
f 4/4/1 1/1/1 3/3/1 
f 5/5/1 4/4/1 3/3/1 
f 6/6/1 5/5/1 3/3/1 
f 7/7/1 6/6/1 3/3/1 
f 8/8/1 7/7/1 3/3/1 
f 9/9/1 8/8/1 3/3/1 
f 10/10/1 9/9/1 3/3/1 
f 11/11/1 10/10/1 3/3/1 
f 12/12/1 11/11/1 3/3/1 
f 3/3/1 13/13/1 14/14/1 
f 14/14/1 15/15/1 16/16/1 
f 16/16/1 17/17/1 18/18/1 
f 16/16/1 18/18/1 19/19/1 
f 16/16/1 19/19/1 20/20/1 
f 16/16/1 20/20/1 21/21/1 
f 16/16/1 21/21/1 22/22/1 
f 16/16/1 22/22/1 23/23/1 
f 16/16/1 23/23/1 24/24/1 
f 16/16/1 24/24/1 25/25/1 
f 16/16/1 25/25/1 26/26/1 
f 16/16/1 26/26/1 27/27/1 
f 16/16/1 27/27/1 28/28/1 
f 14/14/1 16/16/1 28/28/1 
f 14/14/1 28/28/1 29/29/1 
f 3/3/1 14/14/1 29/29/1 
f 12/12/1 3/3/1 29/29/1 
f 30/30/1 12/12/1 29/29/1 
f 30/30/1 29/29/1 31/31/1 
f 32/32/1 30/30/1 31/31/1 
f 33/33/1 32/32/1 31/31/1 
f 34/34/1 33/33/1 31/31/1 
f 34/34/1 31/31/1 35/35/1 
f 35/35/1 36/36/1 37/37/1 
f 35/35/1 37/37/1 38/38/1 
f 34/34/1 35/35/1 38/38/1 
f 39/39/1 34/34/1 38/38/1 
f 39/39/1 38/38/1 40/40/1 
f 41/41/1 39/39/1 40/40/1 
# 39 faces

