# 3ds Max Wavefront OBJ Exporter v0.99 - (c)2007 guruware
# File Created: 24.11.2023 20:00:27

mtllib Barrera2.mtl

#
# object Plane_005_Plane_007
#

v  -0.1227 0.1759 0.5674
v  -0.1227 0.2159 0.5674
v  -0.2109 0.2159 0.5076
v  -0.2109 0.1759 0.5076
v  -0.1908 0.1759 0.4719
v  -0.1908 0.2159 0.4719
v  -0.1870 0.2159 0.4780
v  -0.1870 0.1759 0.4780
v  -0.1064 0.1759 0.5547
v  -0.1064 0.2159 0.5547
v  -0.1123 0.2159 0.5650
v  -0.1123 0.1759 0.5650
v  -0.1979 0.1759 0.3922
v  -0.1979 0.2159 0.3922
v  -0.1954 0.2159 0.4573
v  -0.1954 0.1759 0.4573
v  -0.1189 0.2159 0.5687
v  -0.2141 0.2159 0.5043
v  -0.2165 0.2159 0.4998
v  -0.2173 0.2159 0.4952
v  -0.1151 0.2159 0.5679
v  -0.1053 0.2159 0.5506
v  -0.1062 0.2159 0.5463
v  -0.1087 0.2159 0.5429
v  -0.1765 0.2159 0.4896
v  -0.1802 0.2159 0.4863
v  -0.1840 0.2159 0.4820
v  -0.1930 0.2159 0.4675
v  -0.1946 0.2159 0.4621
v  -0.1991 0.2159 0.3882
v  -0.2021 0.2159 0.3853
v  -0.2061 0.2159 0.3842
v  -0.2081 0.2159 0.3842
v  -0.2120 0.2159 0.3852
v  -0.2150 0.2159 0.3880
v  -0.2161 0.2159 0.3920
v  -0.1765 0.1759 0.4896
v  -0.1087 0.1759 0.5429
v  -0.2061 0.1759 0.3842
v  -0.2081 0.1759 0.3842
v  -0.2173 0.1759 0.4952
v  -0.2161 0.1759 0.3920
v  -0.2150 0.1759 0.3880
v  -0.2120 0.1759 0.3852
v  -0.2165 0.1759 0.4998
v  -0.2141 0.1759 0.5043
v  -0.2021 0.1759 0.3853
v  -0.1991 0.1759 0.3882
v  -0.1946 0.1759 0.4621
v  -0.1930 0.1759 0.4675
v  -0.1840 0.1759 0.4820
v  -0.1802 0.1759 0.4863
v  -0.1062 0.1759 0.5463
v  -0.1053 0.1759 0.5506
v  -0.1151 0.1759 0.5679
v  -0.1189 0.1759 0.5687
# 56 vertices

vn -0.5616 0.0000 0.8274
vn 0.8457 0.0000 -0.5337
vn 0.8704 0.0000 0.4924
vn 0.9992 0.0000 -0.0389
vn 0.0000 1.0000 -0.0000
vn 0.6179 0.0000 -0.7862
vn 0.0136 0.0000 -0.9999
vn 0.0000 -1.0000 -0.0000
vn 0.7100 0.0000 0.7042
vn 0.2278 0.0000 0.9737
vn -0.3238 0.0000 0.9461
vn -0.9838 0.0000 0.1792
vn -0.8864 0.0000 0.4628
vn -0.7094 0.0000 0.7048
vn -0.9627 0.0000 -0.2706
vn -0.6979 0.0000 -0.7162
vn -0.2458 0.0000 -0.9693
vn 0.9563 0.0000 -0.2925
vn 0.6981 0.0000 -0.7160
vn 0.2683 0.0000 -0.9633
vn 0.9892 0.0000 -0.1467
vn 0.9551 0.0000 -0.2964
vn 0.8985 0.0000 -0.4391
vn 0.6726 0.0000 -0.7400
vn 0.7426 0.0000 -0.6697
vn 0.8053 0.0000 -0.5928
vn 0.9650 0.0000 0.2624
vn 0.9811 0.0000 -0.1937
vn 0.7928 0.0000 -0.6094
vn -0.9999 0.0000 -0.0122
# 30 vertex normals

vt 0.2338 0.0000 0.0000
vt 0.0162 0.0000 0.0000
vt 0.9141 0.0000 0.0000
vt 0.8359 0.0000 0.0000
vt 0.4285 0.0000 0.0000
vt 0.3215 0.0000 0.0000
vt 1.0000 0.9021 0.0000
vt 1.0000 0.0979 0.0000
vt 0.2451 0.0002 0.0000
vt 0.0109 0.0011 0.0000
vt 0.0046 0.0281 0.0000
vt 0.0000 0.0666 0.0000
vt 0.2857 0.0002 0.0000
vt 0.4650 0.0002 0.0000
vt 0.5051 0.0002 0.0000
vt 0.5194 0.0000 0.0000
vt 0.7306 0.0000 0.0000
vt 0.7464 -0.0006 0.0000
vt 0.7859 -0.0007 0.0000
vt 0.9754 -0.0020 0.0000
vt 1.0086 0.0348 0.0000
vt 0.9803 0.9525 0.0000
vt 0.7793 0.9965 0.0000
vt 0.5542 1.0000 0.0000
vt 0.4458 1.0000 0.0000
vt 0.2221 0.9967 0.0000
vt 0.0189 0.9663 0.0000
vt 0.0000 0.9334 0.0000
# 28 texture coords

o Plane_005_Plane_007
g Plane_005_Plane_007
usemtl None
s off
f 1/1/1 2/1/1 3/2/1 
f 3/2/1 4/2/1 1/1/1 
f 5/3/2 6/3/2 7/4/2 
f 7/4/2 8/4/2 5/3/2 
f 9/5/3 10/5/3 11/6/3 
f 11/6/3 12/6/3 9/5/3 
f 13/7/4 14/7/4 15/8/4 
f 15/8/4 16/8/4 13/7/4 
f 3/2/5 2/1/5 17/9/5 
f 18/10/5 3/2/5 17/9/5 
f 19/11/5 18/10/5 17/9/5 
f 20/12/5 19/11/5 17/9/5 
f 20/12/5 17/9/5 21/13/5 
f 20/12/5 21/13/5 11/6/5 
f 20/12/5 11/6/5 10/5/5 
f 20/12/5 10/5/5 22/14/5 
f 20/12/5 22/14/5 23/15/5 
f 20/12/5 23/15/5 24/16/5 
f 20/12/5 24/16/5 25/17/5 
f 20/12/5 25/17/5 26/18/5 
f 20/12/5 26/18/5 27/19/5 
f 20/12/5 27/19/5 7/4/5 
f 20/12/5 7/4/5 6/3/5 
f 20/12/5 6/3/5 28/20/5 
f 20/12/5 28/20/5 29/21/5 
f 20/12/5 29/21/5 15/8/5 
f 20/12/5 15/8/5 14/7/5 
f 20/12/5 14/7/5 30/22/5 
f 20/12/5 30/22/5 31/23/5 
f 20/12/5 31/23/5 32/24/5 
f 20/12/5 32/24/5 33/25/5 
f 20/12/5 33/25/5 34/26/5 
f 20/12/5 34/26/5 35/27/5 
f 20/12/5 35/27/5 36/28/5 
f 37/17/6 25/17/6 24/16/6 
f 24/16/6 38/16/6 37/17/6 
f 33/25/7 32/24/7 39/24/7 
f 39/24/7 40/25/7 33/25/7 
f 41/12/8 42/28/8 43/27/8 
f 41/12/8 43/27/8 44/26/8 
f 45/11/8 41/12/8 44/26/8 
f 46/10/8 45/11/8 44/26/8 
f 4/2/8 46/10/8 44/26/8 
f 4/2/8 44/26/8 40/25/8 
f 4/2/8 40/25/8 39/24/8 
f 4/2/8 39/24/8 47/23/8 
f 4/2/8 47/23/8 48/22/8 
f 4/2/8 48/22/8 13/7/8 
f 4/2/8 13/7/8 16/8/8 
f 4/2/8 16/8/8 49/21/8 
f 4/2/8 49/21/8 50/20/8 
f 4/2/8 50/20/8 5/3/8 
f 4/2/8 5/3/8 8/4/8 
f 4/2/8 8/4/8 51/19/8 
f 4/2/8 51/19/8 52/18/8 
f 4/2/8 52/18/8 37/17/8 
f 4/2/8 37/17/8 38/16/8 
f 4/2/8 38/16/8 53/15/8 
f 4/2/8 53/15/8 54/14/8 
f 4/2/8 54/14/8 9/5/8 
f 4/2/8 9/5/8 12/6/8 
f 4/2/8 12/6/8 55/13/8 
f 4/2/8 55/13/8 56/9/8 
f 4/2/8 56/9/8 1/1/8 
f 11/6/9 21/13/9 55/13/9 
f 55/13/9 12/6/9 11/6/9 
f 21/13/10 17/9/10 56/9/10 
f 56/9/10 55/13/10 21/13/10 
f 17/9/11 2/1/11 1/1/11 
f 1/1/11 56/9/11 17/9/11 
f 41/12/12 45/11/12 19/11/12 
f 19/11/12 20/12/12 41/12/12 
f 45/11/13 46/10/13 18/10/13 
f 18/10/13 19/11/13 45/11/13 
f 46/10/14 4/2/14 3/2/14 
f 3/2/14 18/10/14 46/10/14 
f 36/28/15 35/27/15 43/27/15 
f 43/27/15 42/28/15 36/28/15 
f 35/27/16 34/26/16 44/26/16 
f 44/26/16 43/27/16 35/27/16 
f 34/26/17 33/25/17 40/25/17 
f 40/25/17 44/26/17 34/26/17 
f 13/7/18 48/22/18 30/22/18 
f 30/22/18 14/7/18 13/7/18 
f 48/22/19 47/23/19 31/23/19 
f 31/23/19 30/22/19 48/22/19 
f 47/23/20 39/24/20 32/24/20 
f 32/24/20 31/23/20 47/23/20 
f 15/8/21 29/21/21 49/21/21 
f 49/21/21 16/8/21 15/8/21 
f 29/21/22 28/20/22 50/20/22 
f 50/20/22 49/21/22 29/21/22 
f 28/20/23 6/3/23 5/3/23 
f 5/3/23 50/20/23 28/20/23 
f 37/17/24 52/18/24 26/18/24 
f 26/18/24 25/17/24 37/17/24 
f 52/18/25 51/19/25 27/19/25 
f 27/19/25 26/18/25 52/18/25 
f 51/19/26 8/4/26 7/4/26 
f 7/4/26 27/19/26 51/19/26 
f 9/5/27 54/14/27 22/14/27 
f 22/14/27 10/5/27 9/5/27 
f 54/14/28 53/15/28 23/15/28 
f 23/15/28 22/14/28 54/14/28 
f 53/15/29 38/16/29 24/16/29 
f 24/16/29 23/15/29 53/15/29 
f 41/12/30 20/12/30 36/28/30 
f 36/28/30 42/28/30 41/12/30 
# 108 faces

